<?xml version="1.0" encoding="utf-8"?>
<!-- Generator: Adobe Illustrator 19.2.1, SVG Export Plug-In . SVG Version: 6.00 Build 0)  -->
<svg version="1.1" id="Shape_9_copy_2_" xmlns="http://www.w3.org/2000/svg" xmlns:xlink="http://www.w3.org/1999/xlink" x="0px"
	 y="0px" viewBox="0 0 52 14" style="enable-background:new 0 0 52 14;" xml:space="preserve">
<style type="text/css">
	.st0{enable-background:new    ;}
</style>
<defs>
	<path id="SVGID_1_" class="st0" d="M41,0c0.1,1.9,1.1,4.6,2.5,6.3H11.1C9.2,5,7.4,3.4,6.2,1.4h-2C5.4,3.3,7,5,8.7,6.3H7.2
		C5.2,5,3.5,3.4,2.3,1.4h-2C1.5,3.3,3,5,4.8,6.3H0v1.3h4.8C3,9,1.6,10.7,0.3,12.6h2c1.2-2,2.9-3.6,4.9-4.9h1.6
		C7,9,5.5,10.7,4.2,12.6h2c1.2-2,2.9-3.6,4.9-4.9h32.4c-1.4,1.8-2.3,4.3-2.5,6.3c2.4-2.9,7.5-5.6,11-7C48.5,5.5,43.2,3,41,0z"/>
</defs>
<clipPath id="SVGID_2_">
	<use xlink:href="#SVGID_1_"  style="overflow:visible;"/>
</clipPath>
<image style="overflow:visible;clip-path:url(#SVGID_2_);" width="52" height="14" id="Shape_9_copy_xA0_Image" xlink:href="95FCD892856B9C0A.png" >
</image>
</svg>
